<svg width="128" height="128" viewBox="0 0 128 128" fill="none" xmlns="http://www.w3.org/2000/svg">
  <defs>
    <linearGradient id="bg" x1="14" y1="10" x2="112" y2="118" gradientUnits="userSpaceOnUse">
      <stop stop-color="#07162F"/>
      <stop offset="0.48" stop-color="#0B57D0"/>
      <stop offset="1" stop-color="#22D3EE"/>
    </linearGradient>
    <linearGradient id="seven" x1="52" y1="22" x2="103" y2="106" gradientUnits="userSpaceOnUse">
      <stop stop-color="#DDF8FF"/>
      <stop offset="0.45" stop-color="#57DEFF"/>
      <stop offset="1" stop-color="#0B57D0"/>
    </linearGradient>
    <linearGradient id="ring" x1="34" y1="84" x2="113" y2="84" gradientUnits="userSpaceOnUse">
      <stop stop-color="#8FEAFF"/>
      <stop offset="0.5" stop-color="#22D3EE"/>
      <stop offset="1" stop-color="#2563EB"/>
    </linearGradient>
  </defs>

  <rect width="128" height="128" rx="28" fill="url(#bg)"/>
  <rect x="8" y="8" width="112" height="112" rx="22" stroke="rgba(255,255,255,0.16)" stroke-width="2"/>
  <path d="M46 26H104L73 102H57L81 42H46V26Z" fill="url(#seven)"/>
  <path d="M36 79C54 66 73 59 92 59C102 59 111 61 118 66C106 66 92 70 77 76C61 83 49 89 41 95C37 98 33 98 31 95C28 91 30 86 36 79Z" stroke="url(#ring)" stroke-width="10" stroke-linecap="round" stroke-linejoin="round"/>
</svg>
